<svg xmlns="http://www.w3.org/2000/svg" viewBox="0 0 400 400" fill="none">
  <defs>
    <linearGradient id="bg" x1="0" y1="0" x2="1" y2="1">
      <stop offset="0%" stop-color="#1e1b4b"/>
      <stop offset="100%" stop-color="#0c0c1d"/>
    </linearGradient>
    <linearGradient id="ring" x1="0" y1="0" x2="1" y2="1">
      <stop offset="0%" stop-color="#3b82f6"/>
      <stop offset="100%" stop-color="#8b5cf6"/>
    </linearGradient>
    <linearGradient id="code" x1="0" y1="0" x2="1" y2="1">
      <stop offset="0%" stop-color="#60a5fa"/>
      <stop offset="100%" stop-color="#a78bfa"/>
    </linearGradient>
    <clipPath id="circle">
      <circle cx="200" cy="180" r="110"/>
    </clipPath>
  </defs>
  <rect width="400" height="400" rx="200" fill="url(#bg)"/>
  <circle cx="200" cy="180" r="115" fill="none" stroke="url(#ring)" stroke-width="3" opacity="0.6"/>
  <circle cx="200" cy="180" r="108" fill="none" stroke="url(#ring)" stroke-width="1" opacity="0.3"/>
  <g clip-path="url(#circle)">
    <circle cx="200" cy="180" r="110" fill="#151528"/>
    <rect x="130" y="120" width="140" height="100" rx="8" fill="#1a1a35" stroke="#2a2a50" stroke-width="0.5" opacity="0.6"/>
    <line x1="148" y1="140" x2="252" y2="140" stroke="#3b82f6" stroke-width="1" opacity="0.5"/>
    <rect x="148" y="150" width="40" height="3" rx="1.5" fill="#60a5fa" opacity="0.4"/>
    <rect x="148" y="158" width="60" height="3" rx="1.5" fill="#8b5cf6" opacity="0.3"/>
    <rect x="148" y="166" width="50" height="3" rx="1.5" fill="#60a5fa" opacity="0.2"/>
    <rect x="148" y="180" width="35" height="3" rx="1.5" fill="#8b5cf6" opacity="0.4"/>
    <rect x="148" y="188" width="55" height="3" rx="1.5" fill="#60a5fa" opacity="0.3"/>
    <rect x="148" y="196" width="45" height="3" rx="1.5" fill="#a78bfa" opacity="0.2"/>
    <circle cx="280" cy="140" r="20" fill="none" stroke="#8b5cf6" stroke-width="1.5" opacity="0.15"/>
    <circle cx="280" cy="140" r="12" fill="none" stroke="#8b5cf6" stroke-width="1" opacity="0.1"/>
    <circle cx="280" cy="140" r="5" fill="#8b5cf6" opacity="0.1"/>
  </g>
  <path d="M155 310 Q200 290 245 310" fill="none" stroke="url(#ring)" stroke-width="2" opacity="0.4"/>
  <path d="M160 318 Q200 302 240 318" fill="none" stroke="url(#ring)" stroke-width="1" opacity="0.2"/>
  <text x="200" y="350" text-anchor="middle" fill="#60a5fa" font-family="monospace" font-size="12" opacity="0.6">&lt; developer /&gt;</text>
</svg>
