<svg xmlns="http://www.w3.org/2000/svg" viewBox="0 0 600 400" fill="none">
  <defs>
    <linearGradient id="bg3" x1="0" y1="0" x2="1" y2="1">
      <stop offset="0%" stop-color="#0a1a2e"/>
      <stop offset="50%" stop-color="#0a0f1a"/>
      <stop offset="100%" stop-color="#0a0a12"/>
    </linearGradient>
    <linearGradient id="accent3" x1="0" y1="0" x2="1" y2="0">
      <stop offset="0%" stop-color="#4f46e5"/>
      <stop offset="100%" stop-color="#3b82f6"/>
    </linearGradient>
  </defs>
  <rect width="600" height="400" fill="url(#bg3)"/>
  <rect x="0" y="0" width="600" height="400" fill="url(#accent3)" opacity="0.04"/>
  <circle cx="500" cy="50" r="200" fill="#4f46e5" opacity="0.04"/>
  <circle cx="100" cy="450" r="150" fill="#3b82f6" opacity="0.04"/>
  <!-- Top bar -->
  <rect x="40" y="40" width="520" height="30" rx="6" fill="#0f1a30" stroke="#1a2a50" stroke-width="0.5"/>
  <circle cx="55" cy="55" r="4" fill="#ef4444" opacity="0.8"/>
  <circle cx="70" cy="55" r="4" fill="#eab308" opacity="0.8"/>
  <circle cx="85" cy="55" r="4" fill="#22c55e" opacity="0.8"/>
  <rect x="200" y="48" width="60" height="14" rx="3" fill="#1a2a50"/>
  <rect x="480" y="48" width="60" height="14" rx="3" fill="#4f46e5" opacity="0.3"/>
  <!-- Chart area -->
  <rect x="40" y="85" width="360" height="200" rx="8" fill="#0f1a30" stroke="#1a2a50" stroke-width="0.5"/>
  <rect x="55" y="100" width="80" height="8" rx="3" fill="#4f46e5" opacity="0.3"/>
  <rect x="55" y="120" width="330" height="1" fill="#1a2a50"/>
  <rect x="55" y="155" width="330" height="1" fill="#1a2a50"/>
  <rect x="55" y="190" width="330" height="1" fill="#1a2a50"/>
  <rect x="55" y="225" width="330" height="1" fill="#1a2a50"/>
  <rect x="55" y="260" width="330" height="1" fill="#1a2a50"/>
  <!-- Line chart mockup -->
  <polyline points="60,260 100,230 140,240 180,195 220,210 260,175 300,190 340,160 380,170" fill="none" stroke="#4f46e5" stroke-width="2" opacity="0.6"/>
  <polyline points="60,260 100,245 140,250 180,220 220,230 260,210 300,215 340,195 380,200" fill="none" stroke="#3b82f6" stroke-width="2" opacity="0.4"/>
  <!-- Area under chart -->
  <path d="M60 260 L60 260 Q100 230 140 240 Q180 195 220 210 Q260 175 300 190 Q340 160 380 170 L380 260 Z" fill="#4f46e5" opacity="0.06"/>
  <!-- Right stats panel -->
  <rect x="415" y="85" width="145" height="90" rx="8" fill="#0f1a30" stroke="#1a2a50" stroke-width="0.5"/>
  <rect x="430" y="98" width="60" height="6" rx="3" fill="#4f46e5" opacity="0.3"/>
  <text x="430" y="130" fill="#4f46e5" font-family="monospace" font-size="22" font-weight="bold" opacity="0.6">$2.4M</text>
  <rect x="430" y="140" width="45" height="4" rx="2" fill="#1a2a50"/>
  <rect x="430" y="148" width="35" height="4" rx="2" fill="#1a2a50"/>
  <rect x="415" y="190" width="145" height="95" rx="8" fill="#0f1a30" stroke="#1a2a50" stroke-width="0.5"/>
  <rect x="430" y="203" width="70" height="6" rx="3" fill="#3b82f6" opacity="0.3"/>
  <rect x="430" y="218" width="115" height="6" rx="3" fill="#1a2a50"/>
  <rect x="430" y="231" width="100" height="6" rx="3" fill="#1a2a50"/>
  <rect x="430" y="244" width="110" height="6" rx="3" fill="#1a2a50"/>
  <rect x="430" y="265" width="80" height="6" rx="3" fill="#4f46e5" opacity="0.2"/>
  <!-- Bottom table mockup -->
  <rect x="40" y="300" width="520" height="65" rx="8" fill="#0f1a30" stroke="#1a2a50" stroke-width="0.5"/>
  <rect x="55" y="312" width="100" height="8" rx="3" fill="#4f46e5" opacity="0.2"/>
  <rect x="180" y="312" width="100" height="8" rx="3" fill="#1a2a50"/>
  <rect x="310" y="312" width="100" height="8" rx="3" fill="#1a2a50"/>
  <rect x="440" y="312" width="100" height="8" rx="3" fill="#1a2a50"/>
  <rect x="55" y="332" width="100" height="6" rx="3" fill="#1a2a50"/>
  <rect x="180" y="332" width="80" height="6" rx="3" fill="#1a2a50"/>
  <rect x="310" y="332" width="60" height="6" rx="3" fill="#1a2a50"/>
  <rect x="440" y="332" width="40" height="6" rx="3" fill="#22c55e" opacity="0.3"/>
  <rect x="55" y="346" width="90" height="6" rx="3" fill="#1a2a50"/>
  <rect x="180" y="346" width="70" height="6" rx="3" fill="#1a2a50"/>
  <rect x="310" y="346" width="50" height="6" rx="3" fill="#1a2a50"/>
  <rect x="440" y="346" width="40" height="6" rx="3" fill="#22c55e" opacity="0.3"/>
  <text x="300" y="380" text-anchor="middle" fill="#4f46e5" font-family="monospace" font-size="11" opacity="0.5">Atrai – Accounting &amp; Financial System</text>
</svg>
