<svg xmlns="http://www.w3.org/2000/svg" viewBox="0 0 600 400" fill="none">
  <defs>
    <linearGradient id="bg4" x1="0" y1="0" x2="1" y2="1">
      <stop offset="0%" stop-color="#052e16"/>
      <stop offset="50%" stop-color="#0a1a12"/>
      <stop offset="100%" stop-color="#0a0a12"/>
    </linearGradient>
    <linearGradient id="accent4" x1="0" y1="0" x2="1" y2="0">
      <stop offset="0%" stop-color="#10b981"/>
      <stop offset="100%" stop-color="#14b8a6"/>
    </linearGradient>
  </defs>
  <rect width="600" height="400" fill="url(#bg4)"/>
  <rect x="0" y="0" width="600" height="400" fill="url(#accent4)" opacity="0.04"/>
  <circle cx="520" cy="-20" r="200" fill="#10b981" opacity="0.04"/>
  <circle cx="80" cy="450" r="160" fill="#14b8a6" opacity="0.04"/>
  <!-- Top bar -->
  <rect x="40" y="40" width="520" height="30" rx="6" fill="#0a2018" stroke="#1a2a25" stroke-width="0.5"/>
  <circle cx="55" cy="55" r="4" fill="#ef4444" opacity="0.8"/>
  <circle cx="70" cy="55" r="4" fill="#eab308" opacity="0.8"/>
  <circle cx="85" cy="55" r="4" fill="#22c55e" opacity="0.8"/>
  <!-- Progress circle -->
  <rect x="40" y="85" width="250" height="180" rx="8" fill="#0a2018" stroke="#1a2a25" stroke-width="0.5"/>
  <circle cx="165" cy="165" r="55" fill="none" stroke="#1a2a25" stroke-width="8"/>
  <circle cx="165" cy="165" r="55" fill="none" stroke="#10b981" stroke-width="8" stroke-dasharray="260" stroke-dashoffset="80" stroke-linecap="round" opacity="0.7"/>
  <text x="165" y="160" text-anchor="middle" fill="#10b981" font-family="monospace" font-size="24" font-weight="bold" opacity="0.7">78%</text>
  <text x="165" y="178" text-anchor="middle" fill="#1a2a25" font-family="monospace" font-size="10">completed</text>
  <!-- Right cards -->
  <rect x="305" y="85" width="255" height="55" rx="8" fill="#0a2018" stroke="#1a2a25" stroke-width="0.5"/>
  <rect x="318" y="98" width="100" height="6" rx="3" fill="#10b981" opacity="0.3"/>
  <rect x="318" y="111" width="80" height="4" rx="2" fill="#1a2a25"/>
  <rect x="318" y="120" width="140" height="4" rx="2" fill="#1a2a25"/>
  <rect x="305" y="148" width="255" height="55" rx="8" fill="#0a2018" stroke="#1a2a25" stroke-width="0.5"/>
  <rect x="318" y="161" width="90" height="6" rx="3" fill="#14b8a6" opacity="0.3"/>
  <rect x="318" y="174" width="70" height="4" rx="2" fill="#1a2a25"/>
  <rect x="318" y="183" width="120" height="4" rx="2" fill="#1a2a25"/>
  <rect x="305" y="211" width="255" height="55" rx="8" fill="#0a2018" stroke="#1a2a25" stroke-width="0.5"/>
  <rect x="318" y="224" width="110" height="6" rx="3" fill="#6ee7b7" opacity="0.2"/>
  <rect x="318" y="237" width="60" height="4" rx="2" fill="#1a2a25"/>
  <rect x="318" y="246" width="130" height="4" rx="2" fill="#1a2a25"/>
  <!-- Bottom timeline mockup -->
  <rect x="40" y="280" width="520" height="85" rx="8" fill="#0a2018" stroke="#1a2a25" stroke-width="0.5"/>
  <rect x="55" y="295" width="80" height="8" rx="3" fill="#10b981" opacity="0.3"/>
  <line x1="55" y1="320" x2="545" y2="320" stroke="#1a2a25" stroke-width="1"/>
  <circle cx="100" cy="320" r="6" fill="#10b981" opacity="0.6"/>
  <circle cx="200" cy="320" r="6" fill="#14b8a6" opacity="0.6"/>
  <circle cx="320" cy="320" r="6" fill="#1a2a25"/>
  <circle cx="440" cy="320" r="6" fill="#1a2a25"/>
  <rect x="85" y="333" width="30" height="4" rx="2" fill="#1a2a25"/>
  <rect x="185" y="333" width="30" height="4" rx="2" fill="#1a2a25"/>
  <rect x="305" y="333" width="30" height="4" rx="2" fill="#1a2a25"/>
  <rect x="425" y="333" width="30" height="4" rx="2" fill="#1a2a25"/>
  <text x="55" y="352" fill="#1a2a25" font-family="monospace" font-size="9">Q1</text>
  <text x="193" y="352" fill="#1a2a25" font-family="monospace" font-size="9">Q2</text>
  <text x="313" y="352" fill="#1a2a25" font-family="monospace" font-size="9">Q3</text>
  <text x="433" y="352" fill="#1a2a25" font-family="monospace" font-size="9">Q4</text>
  <text x="300" y="380" text-anchor="middle" fill="#10b981" font-family="monospace" font-size="11" opacity="0.5">OKR &amp; Task Management System</text>
</svg>
