<svg xmlns="http://www.w3.org/2000/svg" viewBox="0 0 600 400" fill="none">
  <defs>
    <linearGradient id="bg1" x1="0" y1="0" x2="1" y2="1">
      <stop offset="0%" stop-color="#1e1b4b"/>
      <stop offset="50%" stop-color="#0f0f23"/>
      <stop offset="100%" stop-color="#0a0a12"/>
    </linearGradient>
    <linearGradient id="accent1" x1="0" y1="0" x2="1" y2="0">
      <stop offset="0%" stop-color="#3b82f6"/>
      <stop offset="100%" stop-color="#8b5cf6"/>
    </linearGradient>
  </defs>
  <rect width="600" height="400" fill="url(#bg1)"/>
  <rect x="0" y="0" width="600" height="400" fill="url(#accent1)" opacity="0.05"/>
  <circle cx="500" cy="-50" r="200" fill="#3b82f6" opacity="0.05"/>
  <circle cx="100" cy="450" r="150" fill="#8b5cf6" opacity="0.05"/>
  <!-- Dashboard mockup -->
  <rect x="40" y="40" width="520" height="30" rx="6" fill="#1a1a35" stroke="#2a2a50" stroke-width="0.5"/>
  <circle cx="55" cy="55" r="4" fill="#ef4444" opacity="0.8"/>
  <circle cx="70" cy="55" r="4" fill="#eab308" opacity="0.8"/>
  <circle cx="85" cy="55" r="4" fill="#22c55e" opacity="0.8"/>
  <rect x="120" y="48" width="100" height="14" rx="3" fill="#2a2a50"/>
  <rect x="480" y="48" width="60" height="14" rx="3" fill="#3b82f6" opacity="0.3"/>
  <!-- Sidebar -->
  <rect x="40" y="85" width="140" height="280" rx="8" fill="#151528" stroke="#2a2a50" stroke-width="0.5"/>
  <rect x="55" y="100" width="110" height="10" rx="3" fill="#2a2a50"/>
  <rect x="55" y="120" width="110" height="8" rx="3" fill="#3b82f6" opacity="0.2"/>
  <rect x="55" y="138" width="110" height="8" rx="3" fill="#2a2a50"/>
  <rect x="55" y="156" width="110" height="8" rx="3" fill="#2a2a50"/>
  <rect x="55" y="174" width="110" height="8" rx="3" fill="#2a2a50"/>
  <!-- Main content cards -->
  <rect x="195" y="85" width="170" height="130" rx="8" fill="#1a1a35" stroke="#2a2a50" stroke-width="0.5"/>
  <rect x="210" y="100" width="80" height="8" rx="3" fill="#3b82f6" opacity="0.4"/>
  <rect x="210" y="115" width="140" height="6" rx="3" fill="#2a2a50"/>
  <rect x="210" y="128" width="120" height="6" rx="3" fill="#2a2a50"/>
  <rect x="210" y="148" width="60" height="30" rx="6" fill="#3b82f6" opacity="0.2"/>
  <rect x="280" y="148" width="60" height="30" rx="6" fill="#8b5cf6" opacity="0.2"/>
  <rect x="210" y="190" width="140" height="6" rx="3" fill="#2a2a50"/>
  <rect x="210" y="200" width="100" height="6" rx="3" fill="#2a2a50"/>
  <rect x="380" y="85" width="180" height="130" rx="8" fill="#1a1a35" stroke="#2a2a50" stroke-width="0.5"/>
  <rect x="395" y="100" width="100" height="8" rx="3" fill="#8b5cf6" opacity="0.4"/>
  <rect x="395" y="115" width="150" height="6" rx="3" fill="#2a2a50"/>
  <rect x="395" y="128" width="130" height="6" rx="3" fill="#2a2a50"/>
  <circle cx="430" cy="170" r="20" fill="none" stroke="#3b82f6" stroke-width="2" opacity="0.3"/>
  <circle cx="430" cy="170" r="12" fill="none" stroke="#8b5cf6" stroke-width="2" opacity="0.2"/>
  <circle cx="430" cy="170" r="5" fill="#8b5cf6" opacity="0.2"/>
  <!-- Bottom row -->
  <rect x="195" y="230" width="365" height="135" rx="8" fill="#1a1a35" stroke="#2a2a50" stroke-width="0.5"/>
  <rect x="210" y="245" width="120" height="8" rx="3" fill="#3b82f6" opacity="0.3"/>
  <rect x="210" y="260" width="330" height="6" rx="3" fill="#2a2a50"/>
  <rect x="210" y="273" width="310" height="6" rx="3" fill="#2a2a50"/>
  <rect x="210" y="286" width="340" height="6" rx="3" fill="#2a2a50"/>
  <rect x="210" y="306" width="80" height="24" rx="4" fill="#3b82f6" opacity="0.15"/>
  <rect x="300" y="306" width="80" height="24" rx="4" fill="#8b5cf6" opacity="0.15"/>
  <rect x="210" y="340" width="200" height="6" rx="3" fill="#2a2a50"/>
  <!-- Bottom label -->
  <text x="300" y="380" text-anchor="middle" fill="#3b82f6" font-family="monospace" font-size="11" opacity="0.5">Enterprise SaaS HRM Platform</text>
</svg>
